# xmcd CD database file
#
# Track frame offsets:
#	150
#	13612
#	28874
#	40995
#	53889
#	65035
#	77595
#	89691
#	100543
#	114033
#	127747
#	142050
#	155860
#	168474
#	182492
#	195716
#	210460
#	223559
#	235573
#	254299
#	268162
#	281096
#	295979
#	308653
#	322729
#	334490
#
# Disc length: 4654 seconds
#
# Revision: 0
# Processed by: cddbd v1.5.2PL0 Copyright (c) Steve Scherf et al.
# Submitted via: CDex 1.51
#
DISCID=79122c1a
DTITLE=Django Reinhardt - Plays Django Reinhardt (Disk 1, 1935-1938)
DYEAR=2007
DGENRE=Jazz
TTITLE0=Djangology
TTITLE1=Ultrafox
TTITLE2=Oriental Shuffle
TTITLE3=Are You In The Mood?
TTITLE4=Swing Guitars
TTITLE5=Sweet Chorus
TTITLE6=Tears
TTITLE7=Mystery Pacific
TTITLE8=Improvisation No 1
TTITLE9=Parfum
TTITLE10=Eddie's Blues
TTITLE11=Daphne
TTITLE12=Fiddle Blues
TTITLE13=Bricktop
TTITLE14=Speevy
TTITLE15=Minor Swing
TTITLE16=Swinging With Django
TTITLE17=Paramount Stomp
TTITLE18=Bolero
TTITLE19=My Serenade
TTITLE20=Christmas Swing
TTITLE21=Stephen's Blues
TTITLE22=Souvenirs
TTITLE23=Black And White
TTITLE24=Stompin' At Decca
TTITLE25=Nocturne
EXTD=YEAR: 2007
EXTT0=
EXTT1=
EXTT2=
EXTT3=
EXTT4=
EXTT5=
EXTT6=
EXTT7=
EXTT8=
EXTT9=
EXTT10=
EXTT11=
EXTT12=
EXTT13=
EXTT14=
EXTT15=
EXTT16=
EXTT17=
EXTT18=
EXTT19=
EXTT20=
EXTT21=
EXTT22=
EXTT23=
EXTT24=
EXTT25=
PLAYORDER=
